<?xml version="1.0" encoding="UTF-8" standalone="no"?>
<svg
   xmlns:dc="http://purl.org/dc/elements/1.1/"
   xmlns:cc="http://creativecommons.org/ns#"
   xmlns:rdf="http://www.w3.org/1999/02/22-rdf-syntax-ns#"
   xmlns:svg="http://www.w3.org/2000/svg"
   xmlns="http://www.w3.org/2000/svg"
   viewBox="0 0 1280 720"
   height="720"
   width="1280"
   xml:space="preserve"
   id="svg2"
   version="1.1"><metadata
     id="metadata8"><rdf:RDF><cc:Work
         rdf:about=""><dc:format>image/svg+xml</dc:format><dc:type
           rdf:resource="http://purl.org/dc/dcmitype/StillImage" /></cc:Work></rdf:RDF></metadata><defs
     id="defs6"><clipPath
       id="clipPath18"
       clipPathUnits="userSpaceOnUse"><path
         style="clip-rule:evenodd"
         id="path16"
         d="M 0,1.2207e-4 H 960 V 540.00012 H 0 Z" /></clipPath></defs><g
     transform="matrix(1.3333333,0,0,-1.3333333,0,720)"
     id="g10"><g
       id="g12"><g
         clip-path="url(#clipPath18)"
         id="g14"><path
           id="path20"
           style="fill:#f3ece5;fill-opacity:1;fill-rule:evenodd;stroke:none"
           d="M 0,6.1035e-5 H 960 V 540.00006 H 0 Z" /></g></g><path
       id="path22"
       style="fill:#e8dccf;fill-opacity:1;fill-rule:evenodd;stroke:none"
       d="m 9,521.08 c 0,4.22 3.421,7.64 7.641,7.64 H 362.92 c 4.22,0 7.64,-3.42 7.64,-7.64 v -66.44 c 0,-4.22 -3.42,-7.64 -7.64,-7.64 L 16.641,447 C 12.421,447 9,450.42 9,454.64 Z" /><path
       id="path24"
       style="fill:#e8dccf;fill-opacity:1;fill-rule:evenodd;stroke:none"
       d="m 413.64,521.08 c 0,4.22 3.42,7.64 7.64,7.64 h 169.16 c 4.22,0 7.64,-3.42 7.64,-7.64 v -66.44 c 0,-4.22 -3.42,-7.64 -7.64,-7.64 H 421.28 c -4.22,0 -7.64,3.42 -7.64,7.64 z" /><path
       id="path26"
       style="fill:#e8dccf;fill-opacity:1;fill-rule:evenodd;stroke:none"
       d="m 641.28,521.08 c 0,4.22 3.42,7.64 7.64,7.64 h 116 c 4.22,0 7.64,-3.42 7.64,-7.64 v -66.44 c 0,-4.22 -3.42,-7.64 -7.64,-7.64 h -116 c -4.22,0 -7.64,3.42 -7.64,7.64 z" /><path
       id="path28"
       style="fill:#e8dccf;fill-opacity:1;fill-rule:evenodd;stroke:none"
       d="m 815.64,521.08 c 0,4.22 3.42,7.64 7.64,7.64 h 116 c 4.22,0 7.64,-3.42 7.64,-7.64 v -66.44 c 0,-4.22 -3.42,-7.64 -7.64,-7.64 h -116 c -4.22,0 -7.64,3.42 -7.64,7.64 z" /><path
       id="path30"
       style="fill:#e8dccf;fill-opacity:1;fill-rule:evenodd;stroke:none"
       d="m 9,411.64 c 0,4.22 3.421,7.64 7.641,7.64 H 132.64 c 4.22,0 7.64,-3.42 7.64,-7.64 V 345.2 c 0,-4.22 -3.42,-7.64 -7.64,-7.64 H 16.641 C 12.421,337.56 9,340.98 9,345.2 Z" /><path
       id="path32"
       style="fill:#e8dccf;fill-opacity:1;fill-rule:evenodd;stroke:none"
       d="m 9,302.08 c 0,4.22 3.421,7.64 7.641,7.64 H 132.64 c 4.22,0 7.64,-3.42 7.64,-7.64 v -66.44 c 0,-4.22 -3.42,-7.64 -7.64,-7.64 H 16.641 C 12.421,228 9,231.42 9,235.64 Z" /><path
       id="path34"
       style="fill:#e8dccf;fill-opacity:1;fill-rule:evenodd;stroke:none"
       d="m 9,192.64 c 0,4.22 3.421,7.64 7.641,7.64 H 132.64 c 4.22,0 7.64,-3.42 7.64,-7.64 V 126.2 c 0,-4.22 -3.42,-7.64 -7.64,-7.64 H 16.641 C 12.421,118.56 9,121.98 9,126.2 Z" /><path
       id="path36"
       style="fill:#e8dccf;fill-opacity:1;fill-rule:evenodd;stroke:none"
       d="m 9,83.079 c 0,4.22 3.421,7.641 7.641,7.641 H 132.64 c 4.22,0 7.64,-3.421 7.64,-7.641 V 16.641 c 0,-4.22 -3.42,-7.6409 -7.64,-7.6409 H 16.641 C 12.421,9.0001 9,12.421 9,16.641 Z" /><path
       id="path38"
       style="fill:#e8dccf;fill-opacity:1;fill-rule:evenodd;stroke:none"
       d="m 163.08,401.4 c 0,9.87 8.01,17.88 17.88,17.88 H 580.2 c 9.87,0 17.88,-8.01 17.88,-17.88 V 245.88 C 598.08,236.01 590.07,228 580.2,228 H 180.96 c -9.87,0 -17.88,8.01 -17.88,17.88 z" /><path
       id="path40"
       style="fill:#e8dccf;fill-opacity:1;fill-rule:evenodd;stroke:none"
       d="m 621,401.4 c 0,9.87 8.01,17.88 17.88,17.88 h 290.16 c 9.87,0 17.88,-8.01 17.88,-17.88 V 245.88 c 0,-9.87 -8.01,-17.88 -17.88,-17.88 H 638.88 c -9.87,0 -17.88,8.01 -17.88,17.88 z" /><path
       id="path42"
       style="fill:#e8dccf;fill-opacity:1;fill-rule:evenodd;stroke:none"
       d="m 163.08,182.4 c 0,9.87 8.01,17.88 17.88,17.88 h 214.8 c 9.87,0 17.88,-8.01 17.88,-17.88 V 26.885 c 0,-9.878 -8.01,-17.8849 -17.88,-17.8849 h -214.8 c -9.87,0 -17.88,8.0069 -17.88,17.8849 z" /><path
       id="path44"
       style="fill:#e8dccf;fill-opacity:1;fill-rule:evenodd;stroke:none"
       d="m 429.72,182.4 c 0,9.87 8.01,17.88 17.88,17.88 h 214.8 c 9.87,0 17.88,-8.01 17.88,-17.88 V 26.885 c 0,-9.878 -8.01,-17.8849 -17.88,-17.8849 H 447.6 c -9.87,0 -17.88,8.0069 -17.88,17.8849 z" /><path
       id="path46"
       style="fill:#e8dccf;fill-opacity:1;fill-rule:evenodd;stroke:none"
       d="m 696.36,182.4 c 0,9.87 8.01,17.88 17.88,17.88 h 214.8 c 9.87,0 17.88,-8.01 17.88,-17.88 V 26.885 c 0,-9.878 -8.01,-17.8849 -17.88,-17.8849 h -214.8 c -9.87,0 -17.88,8.0069 -17.88,17.8849 z" /></g></svg>